<?xml version="1.0" encoding="UTF-8" standalone="no"?>
<!-- Created with Inkscape (http://www.inkscape.org/) -->

<svg
   width="210mm"
   height="297mm"
   viewBox="0 0 210 297"
   version="1.1"
   id="svg882"
   inkscape:version="1.2.2 (732a01da63, 2022-12-09)"
   sodipodi:docname="photonia-logo-light.svg"
   xmlns:inkscape="http://www.inkscape.org/namespaces/inkscape"
   xmlns:sodipodi="http://sodipodi.sourceforge.net/DTD/sodipodi-0.dtd"
   xmlns="http://www.w3.org/2000/svg"
   xmlns:svg="http://www.w3.org/2000/svg">
  <sodipodi:namedview
     id="namedview884"
     pagecolor="#ffffff"
     bordercolor="#000000"
     borderopacity="0.25"
     inkscape:showpageshadow="2"
     inkscape:pageopacity="0.0"
     inkscape:pagecheckerboard="0"
     inkscape:deskcolor="#d1d1d1"
     inkscape:document-units="mm"
     showgrid="false"
     inkscape:zoom="0.914906"
     inkscape:cx="396.76207"
     inkscape:cy="560.71334"
     inkscape:window-width="2560"
     inkscape:window-height="1334"
     inkscape:window-x="-11"
     inkscape:window-y="-11"
     inkscape:window-maximized="1"
     inkscape:current-layer="layer1" />
  <defs
     id="defs879">
    <clipPath
       clipPathUnits="userSpaceOnUse"
       id="clipPath1404">
      <g
         id="g1408"
         transform="translate(-1839.0992,-1021.3441)">
        <path
           d="M 0,1491.949 H 3176 V 0 H 0 Z"
           id="path1406" />
      </g>
    </clipPath>
    <clipPath
       clipPathUnits="userSpaceOnUse"
       id="clipPath1398">
      <g
         id="g1402"
         transform="translate(-1898.319,-1021.3441)">
        <path
           d="M 0,1491.949 H 3176 V 0 H 0 Z"
           id="path1400" />
      </g>
    </clipPath>
    <clipPath
       clipPathUnits="userSpaceOnUse"
       id="clipPath1392">
      <g
         id="g1396"
         transform="translate(-1987.1478,-1017.0453)">
        <path
           d="M 0,1491.949 H 3176 V 0 H 0 Z"
           id="path1394" />
      </g>
    </clipPath>
    <clipPath
       clipPathUnits="userSpaceOnUse"
       id="clipPath1386">
      <g
         id="g1390"
         transform="translate(-2001.0002,-1040.9238)">
        <path
           d="M 0,1491.949 H 3176 V 0 H 0 Z"
           id="path1388" />
      </g>
    </clipPath>
    <clipPath
       clipPathUnits="userSpaceOnUse"
       id="clipPath1380">
      <g
         id="g1384"
         transform="translate(-2092.2166,-1017.0453)">
        <path
           d="M 0,1491.949 H 3176 V 0 H 0 Z"
           id="path1382" />
      </g>
    </clipPath>
    <clipPath
       clipPathUnits="userSpaceOnUse"
       id="clipPath1374">
      <g
         id="g1378"
         transform="translate(-2122.7837,-1026.119)">
        <path
           d="M 0,1491.949 H 3176 V 0 H 0 Z"
           id="path1376" />
      </g>
    </clipPath>
    <clipPath
       clipPathUnits="userSpaceOnUse"
       id="clipPath1368">
      <g
         id="g1372">
        <path
           d="M 0,1491.949 H 3176 V 0 H 0 Z"
           id="path1370" />
      </g>
    </clipPath>
    <clipPath
       clipPathUnits="userSpaceOnUse"
       id="clipPath1362">
      <g
         id="g1366"
         transform="translate(-2228.7109,-1011.3152)">
        <path
           d="M 0,1491.949 H 3176 V 0 H 0 Z"
           id="path1364" />
      </g>
    </clipPath>
    <clipPath
       clipPathUnits="userSpaceOnUse"
       id="clipPath1356">
      <g
         id="g1360"
         transform="translate(-1790.5,-1024.7267)">
        <path
           d="M 0,1491.949 H 3176 V 0 H 0 Z"
           id="path1358" />
      </g>
    </clipPath>
    <clipPath
       clipPathUnits="userSpaceOnUse"
       id="clipPath1350">
      <g
         id="g1354"
         transform="translate(-1720,-1024.7267)">
        <path
           d="M 0,1491.949 H 3176 V 0 H 0 Z"
           id="path1352" />
      </g>
    </clipPath>
    <clipPath
       clipPathUnits="userSpaceOnUse"
       id="clipPath1344">
      <g
         id="g1348"
         transform="translate(-1790.5,-974.7961)">
        <path
           d="M 0,1491.949 H 3176 V 0 H 0 Z"
           id="path1346" />
      </g>
    </clipPath>
    <clipPath
       clipPathUnits="userSpaceOnUse"
       id="clipPath1338">
      <g
         id="g1342"
         transform="translate(-1740.5693,-974.7961)">
        <path
           d="M 0,1491.949 H 3176 V 0 H 0 Z"
           id="path1340" />
      </g>
    </clipPath>
  </defs>
  <g
     inkscape:label="Layer 1"
     inkscape:groupmode="layer"
     id="layer1">
    <g
       id="g2033"
       transform="matrix(0.35277777,0,0,-0.35277777,-592.17282,507.29118)">
      <g
         id="g585"
         transform="translate(1839.0992,1021.3441)"
         clip-path="url(#clipPath1404)">
        <path
           d="m 0,0 h 24.833 c 2.865,0 4.776,1.91 4.776,4.775 v 1.433 c 0,2.866 -1.911,4.775 -4.776,4.775 H 0 Z M 0,-28.176 H -9.551 V 19.58 h 34.384 c 8.596,0 14.327,-5.731 14.327,-14.327 0,-8.214 -5.731,-13.85 -14.327,-13.85 L 0,-8.597 Z"
           style="fill:#000000;fill-opacity:1;fill-rule:nonzero;stroke:none"
           id="path587" />
      </g>
      <g
         id="g589"
         transform="translate(1898.319,1021.3441)"
         clip-path="url(#clipPath1398)">
        <path
           d="m 0,0 h 28.654 v 19.58 h 9.551 V -28.176 H 28.654 V -8.597 H 0 V -28.176 H -9.551 V 19.58 H 0 Z"
           style="fill:#000000;fill-opacity:1;fill-rule:nonzero;stroke:none"
           id="path591" />
      </g>
      <g
         id="g593"
         transform="translate(1987.1478,1017.0453)"
         clip-path="url(#clipPath1392)">
        <path
           d="m 0,0 c 0,9.074 -6.208,15.76 -14.804,15.76 -8.597,0 -14.805,-6.686 -14.805,-15.76 0,-9.073 6.208,-15.759 14.805,-15.759 C -6.208,-15.759 0,-9.073 0,0 m 10.029,0 c 0,-14.327 -10.507,-24.833 -24.833,-24.833 -14.327,0 -24.834,10.506 -24.834,24.833 0,14.328 10.507,24.834 24.834,24.834 14.326,0 24.833,-10.506 24.833,-24.834"
           style="fill:#000000;fill-opacity:1;fill-rule:nonzero;stroke:none"
           id="path595" />
      </g>
      <g
         id="g597"
         transform="translate(2001.0002,1040.9238)"
         clip-path="url(#clipPath1386)">
        <path
           d="M 0,0 H 47.756 V -8.597 H 28.654 V -47.756 H 19.103 V -8.597 H 0 Z"
           style="fill:#000000;fill-opacity:1;fill-rule:nonzero;stroke:none"
           id="path599" />
      </g>
      <g
         id="g601"
         transform="translate(2092.2166,1017.0453)"
         clip-path="url(#clipPath1380)">
        <path
           d="M 0,0 C 0,9.074 -6.208,15.76 -14.804,15.76 -23.4,15.76 -29.609,9.074 -29.609,0 c 0,-9.073 6.209,-15.759 14.805,-15.759 C -6.208,-15.759 0,-9.073 0,0 m 10.029,0 c 0,-14.327 -10.507,-24.833 -24.833,-24.833 -14.327,0 -24.833,10.506 -24.833,24.833 0,14.328 10.506,24.834 24.833,24.834 14.326,0 24.833,-10.506 24.833,-24.834"
           style="fill:#000000;fill-opacity:1;fill-rule:nonzero;stroke:none"
           id="path603" />
      </g>
      <g
         id="g605"
         transform="translate(2122.7837,1026.119)"
         clip-path="url(#clipPath1374)">
        <path
           d="m 0,0 v -32.951 h -9.551 v 47.756 h 8.596 l 29.609,-32.951 v 32.951 h 9.551 v -47.756 h -8.596 z"
           style="fill:#000000;fill-opacity:1;fill-rule:nonzero;stroke:none"
           id="path607" />
      </g>
      <path
         d="m 2174.363,1040.924 h 9.551 v -47.756 h -9.551 z"
         style="fill:#000000;fill-opacity:1;fill-rule:nonzero;stroke:none"
         id="path609"
         clip-path="url(#clipPath1368)" />
      <g
         id="g611"
         transform="translate(2228.7109,1011.3152)"
         clip-path="url(#clipPath1362)">
        <path
           d="M 0,0 -8.596,21.012 H -9.551 L -18.147,0 Z m -35.721,-18.147 19.579,47.756 h 14.327 l 19.58,-47.756 H 7.45 l -3.916,9.55 h -25.215 l -3.916,-9.55 z"
           style="fill:#000000;fill-opacity:1;fill-rule:nonzero;stroke:none"
           id="path613" />
      </g>
      <g
         id="g615"
         transform="translate(1790.5,1024.7267)"
         clip-path="url(#clipPath1356)">
        <path
           d="m 0,0 h -14 v 20.569 h -20.569 v 14 H 0 Z"
           style="fill:#ff434d;fill-opacity:1;fill-rule:nonzero;stroke:none"
           id="path617" />
      </g>
      <g
         id="g619"
         transform="translate(1720,1024.7267)"
         clip-path="url(#clipPath1350)">
        <path
           d="m 0,0 h -14 v 34.569 h 34.569 v -14 L 0,20.569 Z"
           style="fill:#f9c55f;fill-opacity:1;fill-rule:nonzero;stroke:none"
           id="path621" />
      </g>
      <g
         id="g623"
         transform="translate(1790.5,974.7961)"
         clip-path="url(#clipPath1344)">
        <path
           d="M 0,0 H -34.569 V 14 H -14 V 34.569 H 0 Z"
           style="fill:#6a79e5;fill-opacity:1;fill-rule:nonzero;stroke:none"
           id="path625" />
      </g>
      <g
         id="g627"
         transform="translate(1740.5693,974.7961)"
         clip-path="url(#clipPath1338)">
        <path
           d="m 0,0 h -34.569 v 34.569 h 14 V 14 H 0 Z"
           style="fill:#6ad3bf;fill-opacity:1;fill-rule:nonzero;stroke:none"
           id="path629" />
      </g>
    </g>
  </g>
</svg>
