<?xml version="1.0" standalone="no"?>
<!DOCTYPE svg PUBLIC "-//W3C//DTD SVG 20010904//EN"
 "http://www.w3.org/TR/2001/REC-SVG-20010904/DTD/svg10.dtd">
<svg version="1.0" xmlns="http://www.w3.org/2000/svg"
 width="260.000000pt" height="260.000000pt" viewBox="0 0 260.000000 260.000000"
 preserveAspectRatio="xMidYMid meet">
<metadata>
Created by potrace 1.14, written by Peter Selinger 2001-2017
</metadata>
<g transform="translate(0.000000,260.000000) scale(0.100000,-0.100000)"
fill="#000000" stroke="none">
<path d="M2 2068 l3 -532 210 0 210 0 3 317 2 317 317 2 317 3 1 213 0 212
-533 0 -532 0 2 -532z"/>
<path d="M1538 2593 c-3 -7 -2 -375 1 -410 1 -10 71 -13 316 -13 l315 0 2
-317 3 -317 210 0 210 -1 3 533 2 532 -529 0 c-292 0 -531 -3 -533 -7z"/>
<path d="M10 1062 c-6 -2 -10 -189 -10 -533 l0 -529 533 0 532 0 0 213 0 212
-318 3 -317 2 0 315 c0 173 -3 315 -7 316 -24 3 -405 3 -413 1z"/>
<path d="M2180 1062 c-6 -2 -10 -117 -10 -318 l0 -314 -317 -2 -318 -3 1 -210
0 -210 532 -3 532 -2 0 532 0 533 -205 0 c-113 0 -210 -1 -215 -3z"/>
</g>
</svg>
